<svg xmlns="http://www.w3.org/2000/svg" viewBox="0 0 900 900" role="img" aria-labelledby="title desc">
  <title id="title">Stilisierter Maler mit Wirbelhimmel</title>
  <desc id="desc">Kuenstlerportraet mit roetlichem Bart vor einem wirbelnden Nachthimmel als Anspielung auf Sternennacht.</desc>
  <defs>
    <linearGradient id="sky" x1="0" x2="1" y1="0" y2="1">
      <stop offset="0%" stop-color="#153a67"/>
      <stop offset="100%" stop-color="#0b1730"/>
    </linearGradient>
  </defs>
  <rect width="900" height="900" fill="url(#sky)"/>
  <path d="M95 160c120-55 223-39 304 10 72 43 138 52 233 10 54-24 110-32 173-17" fill="none" stroke="#f7cf58" stroke-width="18" stroke-linecap="round"/>
  <path d="M126 253c138 61 255 60 355-4 87-56 182-68 290-30" fill="none" stroke="#3c7dc4" stroke-width="22" stroke-linecap="round"/>
  <path d="M108 352c111-41 212-50 298-8 87 42 171 42 304-8" fill="none" stroke="#f7cf58" stroke-width="16" stroke-linecap="round"/>
  <circle cx="664" cy="176" r="42" fill="#f5d254"/>
  <circle cx="260" cy="212" r="26" fill="#f5d254"/>
  <circle cx="788" cy="302" r="20" fill="#f5d254"/>
  <ellipse cx="452" cy="507" rx="163" ry="195" fill="#f1cfb7"/>
  <path d="M287 473c9-120 92-214 204-214 101 0 165 62 181 180-37-25-81-40-133-36-94 8-164 43-252 70z" fill="#c66d2d"/>
  <path d="M335 628c56 44 171 42 228-4-17 87-72 138-118 138-47 0-90-50-110-134z" fill="#b65e2c"/>
  <ellipse cx="396" cy="502" rx="16" ry="12" fill="#253245"/>
  <ellipse cx="521" cy="502" rx="16" ry="12" fill="#253245"/>
  <path d="M396 581c41 21 86 21 127 0" fill="none" stroke="#7f3222" stroke-width="12" stroke-linecap="round"/>
  <path d="M224 788c112-68 236-94 445-78" fill="none" stroke="#2f5a3a" stroke-width="18" stroke-linecap="round"/>
  <text x="78" y="102" font-family="Georgia, serif" font-size="74" fill="#f8e39b">?</text>
</svg>
